# xmcd
#
# Track frame offsets:
#   150
#   14726
#   36120
#   56383
#   84113
#   101218
#
# Disc length: 1569 seconds
#
# Revision: 0
# Processed by: cddbd v1.5.2PL0 Copyright (c) Steve Scherf et al.
# Submitted via: uFREEDB 1.6.0
#
DISCID=42061f06
DTITLE=Bugaboo Tang - Four...one...five
DYEAR=1900
DGENRE=Blues
TTITLE0=Safronia B
TTITLE1=Caldonia
TTITLE2=Don't touch me
TTITLE3=The Hucklebuck
TTITLE4=Just got lucky
TTITLE5=I feel good
EXTD=
EXTT0=
EXTT1=
EXTT2=
EXTT3=
EXTT4=
EXTT5=
PLAYORDER=
